<mxfile host="app.diagrams.net" modified="2021-12-08T06:43:54.300Z" agent="5.0 (Macintosh; Intel Mac OS X 10_15_7) AppleWebKit/537.36 (KHTML, like Gecko) Chrome/94.0.4606.81 Safari/537.36 Edg/94.0.992.47" etag="TIRCQ-AN2uLq-xLWeJOx" version="15.8.6" type="github">
  <diagram name="Page-1" id="90a13364-a465-7bf4-72fc-28e22215d7a0">
    <mxGraphModel dx="1186" dy="700" grid="1" gridSize="10" guides="1" tooltips="1" connect="1" arrows="1" fold="1" page="1" pageScale="1.5" pageWidth="1169" pageHeight="826" background="none" math="0" shadow="0">
      <root>
        <mxCell id="0" style=";html=1;" />
        <mxCell id="1" style=";html=1;" parent="0" />
        <mxCell id="3a17f1ce550125da-1" value="&amp;nbsp;调度容器化" style="whiteSpace=wrap;html=1;shadow=1;fontSize=20;fillColor=#f5f5f5;strokeColor=#666666;strokeWidth=2;dashed=1;" parent="1" vertex="1">
          <mxGeometry x="797" y="344" width="150" height="60" as="geometry" />
        </mxCell>
        <mxCell id="3a17f1ce550125da-13" style="edgeStyle=elbowEdgeStyle;rounded=0;html=1;startArrow=none;startFill=0;jettySize=auto;orthogonalLoop=1;fontSize=18;elbow=vertical;" parent="1" source="3a17f1ce550125da-2" target="3a17f1ce550125da-4" edge="1">
          <mxGeometry relative="1" as="geometry" />
        </mxCell>
        <mxCell id="3a17f1ce550125da-14" style="edgeStyle=elbowEdgeStyle;rounded=0;html=1;startArrow=none;startFill=0;jettySize=auto;orthogonalLoop=1;fontSize=18;elbow=vertical;" parent="1" source="3a17f1ce550125da-2" target="3a17f1ce550125da-5" edge="1">
          <mxGeometry relative="1" as="geometry" />
        </mxCell>
        <mxCell id="3a17f1ce550125da-15" style="edgeStyle=elbowEdgeStyle;rounded=0;html=1;startArrow=none;startFill=0;jettySize=auto;orthogonalLoop=1;fontSize=18;elbow=vertical;" parent="1" source="3a17f1ce550125da-2" target="3a17f1ce550125da-6" edge="1">
          <mxGeometry relative="1" as="geometry" />
        </mxCell>
        <mxCell id="3a17f1ce550125da-16" style="edgeStyle=elbowEdgeStyle;rounded=0;html=1;startArrow=none;startFill=0;jettySize=auto;orthogonalLoop=1;fontSize=18;elbow=vertical;" parent="1" source="3a17f1ce550125da-2" target="3a17f1ce550125da-7" edge="1">
          <mxGeometry relative="1" as="geometry" />
        </mxCell>
        <mxCell id="3a17f1ce550125da-17" style="edgeStyle=elbowEdgeStyle;rounded=0;html=1;startArrow=none;startFill=0;jettySize=auto;orthogonalLoop=1;fontSize=18;" parent="1" source="3a17f1ce550125da-10" target="3a17f1ce550125da-2" edge="1">
          <mxGeometry relative="1" as="geometry">
            <Array as="points">
              <mxPoint x="907" y="754" />
            </Array>
          </mxGeometry>
        </mxCell>
        <mxCell id="3a17f1ce550125da-2" value="Master" style="whiteSpace=wrap;html=1;shadow=1;fontSize=18;fillColor=#f5f5f5;strokeColor=#666666;" parent="1" vertex="1">
          <mxGeometry x="787" y="454" width="170" height="280" as="geometry" />
        </mxCell>
        <mxCell id="3a17f1ce550125da-4" value="Spectrum Analyzer" style="whiteSpace=wrap;html=1;shadow=1;fontSize=18;fillColor=#f5f5f5;strokeColor=#666666;" parent="1" vertex="1">
          <mxGeometry x="1037" y="444" width="120" height="60" as="geometry" />
        </mxCell>
        <mxCell id="3a17f1ce550125da-5" value="Network Analyzer" style="whiteSpace=wrap;html=1;shadow=1;fontSize=18;fillColor=#f5f5f5;strokeColor=#666666;" parent="1" vertex="1">
          <mxGeometry x="1037" y="524" width="120" height="60" as="geometry" />
        </mxCell>
        <mxCell id="3a17f1ce550125da-6" value="Power Meter" style="whiteSpace=wrap;html=1;shadow=1;fontSize=18;fillColor=#f5f5f5;strokeColor=#666666;" parent="1" vertex="1">
          <mxGeometry x="1037" y="604" width="120" height="60" as="geometry" />
        </mxCell>
        <mxCell id="3a17f1ce550125da-7" value="Freq. Count" style="whiteSpace=wrap;html=1;shadow=1;fontSize=18;fillColor=#f5f5f5;strokeColor=#666666;" parent="1" vertex="1">
          <mxGeometry x="1037" y="684" width="120" height="60" as="geometry" />
        </mxCell>
        <mxCell id="3a17f1ce550125da-20" style="edgeStyle=elbowEdgeStyle;rounded=0;html=1;startArrow=none;startFill=0;jettySize=auto;orthogonalLoop=1;fontSize=18;elbow=vertical;" parent="1" source="3a17f1ce550125da-8" target="3a17f1ce550125da-2" edge="1">
          <mxGeometry relative="1" as="geometry">
            <Array as="points">
              <mxPoint x="757" y="514" />
            </Array>
          </mxGeometry>
        </mxCell>
        <mxCell id="3a17f1ce550125da-8" value="Vector Signal Generator" style="whiteSpace=wrap;html=1;shadow=1;fontSize=18;fillColor=#f5f5f5;strokeColor=#666666;" parent="1" vertex="1">
          <mxGeometry x="597" y="444" width="120" height="150" as="geometry" />
        </mxCell>
        <mxCell id="3a17f1ce550125da-21" style="edgeStyle=elbowEdgeStyle;rounded=0;html=1;startArrow=none;startFill=0;jettySize=auto;orthogonalLoop=1;fontSize=18;elbow=vertical;" parent="1" source="3a17f1ce550125da-9" target="3a17f1ce550125da-2" edge="1">
          <mxGeometry relative="1" as="geometry" />
        </mxCell>
        <mxCell id="3a17f1ce550125da-9" value="ARB / Mod Source" style="whiteSpace=wrap;html=1;shadow=1;fontSize=18;fillColor=#f5f5f5;strokeColor=#666666;" parent="1" vertex="1">
          <mxGeometry x="597" y="634" width="120" height="60" as="geometry" />
        </mxCell>
        <mxCell id="3a17f1ce550125da-10" value="DUT" style="whiteSpace=wrap;html=1;shadow=1;fontSize=18;fillColor=#f5f5f5;strokeColor=#666666;" parent="1" vertex="1">
          <mxGeometry x="799.5" y="774" width="145" height="120" as="geometry" />
        </mxCell>
        <mxCell id="3a17f1ce550125da-18" style="edgeStyle=elbowEdgeStyle;rounded=0;html=1;startArrow=none;startFill=0;jettySize=auto;orthogonalLoop=1;fontSize=18;elbow=vertical;" parent="1" source="3a17f1ce550125da-11" target="3a17f1ce550125da-10" edge="1">
          <mxGeometry relative="1" as="geometry" />
        </mxCell>
        <mxCell id="3a17f1ce550125da-11" value="DC Power Supplies" style="whiteSpace=wrap;html=1;shadow=1;fontSize=18;fillColor=#f5f5f5;strokeColor=#666666;" parent="1" vertex="1">
          <mxGeometry x="597" y="804" width="120" height="60" as="geometry" />
        </mxCell>
        <mxCell id="3a17f1ce550125da-22" style="edgeStyle=elbowEdgeStyle;rounded=0;html=1;startArrow=none;startFill=0;jettySize=auto;orthogonalLoop=1;fontSize=18;" parent="1" source="3a17f1ce550125da-10" target="3a17f1ce550125da-2" edge="1">
          <mxGeometry relative="1" as="geometry">
            <mxPoint x="937" y="784" as="sourcePoint" />
            <mxPoint x="937" y="744" as="targetPoint" />
            <Array as="points">
              <mxPoint x="927" y="754" />
              <mxPoint x="907" y="754" />
            </Array>
          </mxGeometry>
        </mxCell>
        <mxCell id="3a17f1ce550125da-23" style="edgeStyle=elbowEdgeStyle;rounded=0;html=1;startArrow=none;startFill=0;jettySize=auto;orthogonalLoop=1;fontSize=18;" parent="1" edge="1">
          <mxGeometry relative="1" as="geometry">
            <mxPoint x="887" y="774" as="sourcePoint" />
            <mxPoint x="887" y="734" as="targetPoint" />
            <Array as="points">
              <mxPoint x="887" y="754" />
              <mxPoint x="887" y="754" />
            </Array>
          </mxGeometry>
        </mxCell>
        <mxCell id="3a17f1ce550125da-24" style="edgeStyle=elbowEdgeStyle;rounded=0;html=1;startArrow=none;startFill=0;jettySize=auto;orthogonalLoop=1;fontSize=18;" parent="1" edge="1">
          <mxGeometry relative="1" as="geometry">
            <mxPoint x="857" y="734" as="sourcePoint" />
            <mxPoint x="857" y="774" as="targetPoint" />
            <Array as="points">
              <mxPoint x="857" y="754" />
              <mxPoint x="887" y="764" />
            </Array>
          </mxGeometry>
        </mxCell>
        <mxCell id="3a17f1ce550125da-25" style="edgeStyle=elbowEdgeStyle;rounded=0;html=1;startArrow=none;startFill=0;jettySize=auto;orthogonalLoop=1;fontSize=18;" parent="1" edge="1">
          <mxGeometry relative="1" as="geometry">
            <mxPoint x="837" y="734" as="sourcePoint" />
            <mxPoint x="837" y="774" as="targetPoint" />
            <Array as="points">
              <mxPoint x="837" y="754" />
              <mxPoint x="867" y="764" />
            </Array>
          </mxGeometry>
        </mxCell>
        <mxCell id="3a17f1ce550125da-26" style="edgeStyle=elbowEdgeStyle;rounded=0;html=1;startArrow=none;startFill=0;jettySize=auto;orthogonalLoop=1;fontSize=18;" parent="1" edge="1">
          <mxGeometry relative="1" as="geometry">
            <mxPoint x="817" y="734" as="sourcePoint" />
            <mxPoint x="817" y="774" as="targetPoint" />
            <Array as="points">
              <mxPoint x="817" y="754" />
              <mxPoint x="847" y="764" />
            </Array>
          </mxGeometry>
        </mxCell>
        <mxCell id="BZ-TsVA_fN7d5yoJhVWp-3" value="" style="edgeStyle=orthogonalEdgeStyle;rounded=0;orthogonalLoop=1;jettySize=auto;html=1;fontSize=14;" edge="1" parent="1" source="BZ-TsVA_fN7d5yoJhVWp-1" target="BZ-TsVA_fN7d5yoJhVWp-2">
          <mxGeometry relative="1" as="geometry" />
        </mxCell>
        <mxCell id="BZ-TsVA_fN7d5yoJhVWp-4" value="&amp;nbsp;机器学习任务" style="edgeLabel;html=1;align=center;verticalAlign=middle;resizable=0;points=[];fontSize=14;" vertex="1" connectable="0" parent="BZ-TsVA_fN7d5yoJhVWp-3">
          <mxGeometry x="-0.175" y="1" relative="1" as="geometry">
            <mxPoint as="offset" />
          </mxGeometry>
        </mxCell>
        <mxCell id="BZ-TsVA_fN7d5yoJhVWp-1" value="调度GPU" style="rounded=0;whiteSpace=wrap;html=1;fontSize=14;fillColor=#60a917;fontColor=#ffffff;strokeColor=#2D7600;" vertex="1" parent="1">
          <mxGeometry x="540" y="970" width="120" height="50" as="geometry" />
        </mxCell>
        <mxCell id="BZ-TsVA_fN7d5yoJhVWp-6" value="" style="edgeStyle=orthogonalEdgeStyle;rounded=0;orthogonalLoop=1;jettySize=auto;html=1;fontSize=14;" edge="1" parent="1" source="BZ-TsVA_fN7d5yoJhVWp-2" target="BZ-TsVA_fN7d5yoJhVWp-5">
          <mxGeometry relative="1" as="geometry" />
        </mxCell>
        <mxCell id="BZ-TsVA_fN7d5yoJhVWp-2" value="任务上线" style="whiteSpace=wrap;html=1;rounded=0;fontSize=14;" vertex="1" parent="1">
          <mxGeometry x="540" y="1080" width="120" height="40" as="geometry" />
        </mxCell>
        <mxCell id="BZ-TsVA_fN7d5yoJhVWp-8" value="" style="edgeStyle=orthogonalEdgeStyle;rounded=0;orthogonalLoop=1;jettySize=auto;html=1;fontSize=14;" edge="1" parent="1" source="BZ-TsVA_fN7d5yoJhVWp-5" target="BZ-TsVA_fN7d5yoJhVWp-7">
          <mxGeometry relative="1" as="geometry" />
        </mxCell>
        <mxCell id="BZ-TsVA_fN7d5yoJhVWp-9" value="否" style="edgeLabel;html=1;align=center;verticalAlign=middle;resizable=0;points=[];fontSize=14;" vertex="1" connectable="0" parent="BZ-TsVA_fN7d5yoJhVWp-8">
          <mxGeometry x="-0.1333" y="-1" relative="1" as="geometry">
            <mxPoint as="offset" />
          </mxGeometry>
        </mxCell>
        <mxCell id="BZ-TsVA_fN7d5yoJhVWp-11" value="" style="edgeStyle=orthogonalEdgeStyle;rounded=0;orthogonalLoop=1;jettySize=auto;html=1;fontSize=14;" edge="1" parent="1" source="BZ-TsVA_fN7d5yoJhVWp-5" target="BZ-TsVA_fN7d5yoJhVWp-10">
          <mxGeometry relative="1" as="geometry" />
        </mxCell>
        <mxCell id="BZ-TsVA_fN7d5yoJhVWp-12" value="是" style="edgeLabel;html=1;align=center;verticalAlign=middle;resizable=0;points=[];fontSize=14;" vertex="1" connectable="0" parent="BZ-TsVA_fN7d5yoJhVWp-11">
          <mxGeometry x="-0.15" relative="1" as="geometry">
            <mxPoint as="offset" />
          </mxGeometry>
        </mxCell>
        <mxCell id="BZ-TsVA_fN7d5yoJhVWp-5" value="使用GPU&lt;br style=&quot;font-size: 14px;&quot;&gt;资源" style="rhombus;whiteSpace=wrap;html=1;rounded=0;fontSize=14;" vertex="1" parent="1">
          <mxGeometry x="707" y="1060" width="113" height="80" as="geometry" />
        </mxCell>
        <mxCell id="BZ-TsVA_fN7d5yoJhVWp-7" value="上线完成" style="whiteSpace=wrap;html=1;rounded=0;fontSize=14;" vertex="1" parent="1">
          <mxGeometry x="930" y="1080" width="90" height="40" as="geometry" />
        </mxCell>
        <mxCell id="BZ-TsVA_fN7d5yoJhVWp-14" value="" style="edgeStyle=orthogonalEdgeStyle;rounded=0;orthogonalLoop=1;jettySize=auto;html=1;fontSize=14;" edge="1" parent="1" source="BZ-TsVA_fN7d5yoJhVWp-10" target="BZ-TsVA_fN7d5yoJhVWp-13">
          <mxGeometry relative="1" as="geometry" />
        </mxCell>
        <mxCell id="BZ-TsVA_fN7d5yoJhVWp-15" value="&amp;nbsp;&amp;lt;&amp;nbsp; 0&amp;nbsp; || &amp;lt; 所需" style="edgeLabel;html=1;align=center;verticalAlign=middle;resizable=0;points=[];fontSize=14;" vertex="1" connectable="0" parent="BZ-TsVA_fN7d5yoJhVWp-14">
          <mxGeometry x="-0.2444" y="3" relative="1" as="geometry">
            <mxPoint as="offset" />
          </mxGeometry>
        </mxCell>
        <mxCell id="BZ-TsVA_fN7d5yoJhVWp-17" value="" style="edgeStyle=orthogonalEdgeStyle;rounded=0;orthogonalLoop=1;jettySize=auto;html=1;fontSize=14;" edge="1" parent="1" source="BZ-TsVA_fN7d5yoJhVWp-10" target="BZ-TsVA_fN7d5yoJhVWp-16">
          <mxGeometry relative="1" as="geometry" />
        </mxCell>
        <mxCell id="BZ-TsVA_fN7d5yoJhVWp-18" value="&lt;font style=&quot;font-size: 12px&quot;&gt;&amp;gt; 任务所需的GPU&lt;/font&gt;" style="edgeLabel;html=1;align=center;verticalAlign=middle;resizable=0;points=[];fontSize=14;" vertex="1" connectable="0" parent="BZ-TsVA_fN7d5yoJhVWp-17">
          <mxGeometry x="-0.4" y="-1" relative="1" as="geometry">
            <mxPoint x="1" y="12" as="offset" />
          </mxGeometry>
        </mxCell>
        <mxCell id="BZ-TsVA_fN7d5yoJhVWp-10" value="&lt;font style=&quot;font-size: 12px&quot;&gt;资产云&lt;br&gt;GPU&lt;br&gt;余额&lt;/font&gt;" style="rhombus;whiteSpace=wrap;html=1;rounded=0;fontSize=14;" vertex="1" parent="1">
          <mxGeometry x="740" y="1220" width="120" height="60" as="geometry" />
        </mxCell>
        <mxCell id="BZ-TsVA_fN7d5yoJhVWp-13" value="无法上线&lt;br&gt;提示申请" style="whiteSpace=wrap;html=1;rounded=0;fontSize=14;" vertex="1" parent="1">
          <mxGeometry x="1010" y="1230" width="80" height="40" as="geometry" />
        </mxCell>
        <mxCell id="BZ-TsVA_fN7d5yoJhVWp-21" value="" style="edgeStyle=orthogonalEdgeStyle;rounded=0;orthogonalLoop=1;jettySize=auto;html=1;exitX=0.5;exitY=1;exitDx=0;exitDy=0;fontSize=14;" edge="1" parent="1" source="BZ-TsVA_fN7d5yoJhVWp-25" target="BZ-TsVA_fN7d5yoJhVWp-20">
          <mxGeometry relative="1" as="geometry" />
        </mxCell>
        <mxCell id="BZ-TsVA_fN7d5yoJhVWp-22" value="&lt;font style=&quot;font-size: 12px&quot;&gt;周期运行&lt;/font&gt;" style="edgeLabel;html=1;align=center;verticalAlign=middle;resizable=0;points=[];fontSize=14;" vertex="1" connectable="0" parent="BZ-TsVA_fN7d5yoJhVWp-21">
          <mxGeometry x="-0.1429" relative="1" as="geometry">
            <mxPoint as="offset" />
          </mxGeometry>
        </mxCell>
        <mxCell id="BZ-TsVA_fN7d5yoJhVWp-26" value="" style="edgeStyle=orthogonalEdgeStyle;rounded=0;orthogonalLoop=1;jettySize=auto;html=1;fontSize=14;" edge="1" parent="1" source="BZ-TsVA_fN7d5yoJhVWp-16" target="BZ-TsVA_fN7d5yoJhVWp-25">
          <mxGeometry relative="1" as="geometry" />
        </mxCell>
        <mxCell id="BZ-TsVA_fN7d5yoJhVWp-16" value="余额扣减" style="whiteSpace=wrap;html=1;rounded=0;fontSize=14;" vertex="1" parent="1">
          <mxGeometry x="740" y="1340" width="120" height="40" as="geometry" />
        </mxCell>
        <mxCell id="BZ-TsVA_fN7d5yoJhVWp-19" value="&lt;span style=&quot;color: rgb(23 , 26 , 29) ; font-family: , , &amp;#34;pingfang sc&amp;#34; , &amp;#34;hiragino sans gb&amp;#34; , &amp;#34;segoe ui&amp;#34; , , &amp;#34;roboto&amp;#34; , &amp;#34;droid sans&amp;#34; , &amp;#34;helvetica neue&amp;#34; , sans-serif ; font-size: 14px ; text-align: left ; background-color: rgb(242 , 244 , 248)&quot;&gt;&lt;b&gt;GPU换算公式&lt;/b&gt;：V100 1张卡=16G ； K80 1张卡=12G&lt;/span&gt;" style="text;html=1;align=center;verticalAlign=middle;resizable=0;points=[];autosize=1;strokeColor=#B09500;fillColor=#e3c800;fontColor=#000000;" vertex="1" parent="1">
          <mxGeometry x="707" y="970" width="340" height="20" as="geometry" />
        </mxCell>
        <mxCell id="BZ-TsVA_fN7d5yoJhVWp-24" value="" style="edgeStyle=orthogonalEdgeStyle;rounded=0;orthogonalLoop=1;jettySize=auto;html=1;fontSize=14;" edge="1" parent="1" source="BZ-TsVA_fN7d5yoJhVWp-20" target="BZ-TsVA_fN7d5yoJhVWp-23">
          <mxGeometry relative="1" as="geometry" />
        </mxCell>
        <mxCell id="BZ-TsVA_fN7d5yoJhVWp-20" value="运行结束" style="whiteSpace=wrap;html=1;rounded=0;fontSize=14;" vertex="1" parent="1">
          <mxGeometry x="740" y="1490" width="120" height="30" as="geometry" />
        </mxCell>
        <mxCell id="BZ-TsVA_fN7d5yoJhVWp-23" value="上报" style="whiteSpace=wrap;html=1;rounded=0;fontSize=14;" vertex="1" parent="1">
          <mxGeometry x="740" y="1550" width="120" height="30" as="geometry" />
        </mxCell>
        <mxCell id="BZ-TsVA_fN7d5yoJhVWp-28" value="" style="edgeStyle=orthogonalEdgeStyle;rounded=0;orthogonalLoop=1;jettySize=auto;html=1;fontSize=14;" edge="1" parent="1" source="BZ-TsVA_fN7d5yoJhVWp-25" target="BZ-TsVA_fN7d5yoJhVWp-27">
          <mxGeometry relative="1" as="geometry" />
        </mxCell>
        <mxCell id="BZ-TsVA_fN7d5yoJhVWp-29" value="&lt;font style=&quot;font-size: 12px&quot;&gt;下线&lt;/font&gt;" style="edgeLabel;html=1;align=center;verticalAlign=middle;resizable=0;points=[];fontSize=14;" vertex="1" connectable="0" parent="BZ-TsVA_fN7d5yoJhVWp-28">
          <mxGeometry x="-0.2" y="-1" relative="1" as="geometry">
            <mxPoint as="offset" />
          </mxGeometry>
        </mxCell>
        <mxCell id="BZ-TsVA_fN7d5yoJhVWp-31" value="" style="edgeStyle=orthogonalEdgeStyle;rounded=0;orthogonalLoop=1;jettySize=auto;html=1;fontSize=12;" edge="1" parent="1" source="BZ-TsVA_fN7d5yoJhVWp-25" target="BZ-TsVA_fN7d5yoJhVWp-30">
          <mxGeometry relative="1" as="geometry" />
        </mxCell>
        <mxCell id="BZ-TsVA_fN7d5yoJhVWp-25" value="任务上线成功" style="whiteSpace=wrap;html=1;rounded=0;fontSize=14;" vertex="1" parent="1">
          <mxGeometry x="740" y="1410" width="120" height="30" as="geometry" />
        </mxCell>
        <mxCell id="BZ-TsVA_fN7d5yoJhVWp-27" value="预扣取消" style="whiteSpace=wrap;html=1;rounded=0;fontSize=14;fillColor=#e3c800;fontColor=#000000;strokeColor=#B09500;" vertex="1" parent="1">
          <mxGeometry x="944.5" y="1406.25" width="95.5" height="37.5" as="geometry" />
        </mxCell>
        <mxCell id="BZ-TsVA_fN7d5yoJhVWp-30" value="每日汇总上报" style="whiteSpace=wrap;html=1;rounded=0;fontSize=14;fillColor=#d5e8d4;strokeColor=none;" vertex="1" parent="1">
          <mxGeometry x="540" y="1402.5" width="120" height="45" as="geometry" />
        </mxCell>
      </root>
    </mxGraphModel>
  </diagram>
</mxfile>
